<svg xmlns="http://www.w3.org/2000/svg" viewBox="0 0 48 40" width="48" height="40" shape-rendering="crispEdges"><rect width="48" height="40" fill="#4a3b6b"/><rect x="22" y="0" width="4" height="1" fill="#c8c7ff"/><rect x="21" y="1" width="6" height="1" fill="#c8c7ff"/><rect x="21" y="2" width="1" height="1" fill="#c8c7ff"/><rect x="22" y="2" width="4" height="2" fill="#3a2d56"/><rect x="26" y="2" width="1" height="1" fill="#c8c7ff"/><rect x="8" y="3" width="14" height="1" fill="#c8c7ff"/><rect x="26" y="3" width="14" height="1" fill="#c8c7ff"/><rect x="8" y="4" width="1" height="22" fill="#c8c7ff"/><rect x="9" y="4" width="12" height="1" fill="#241a3a"/><rect x="21" y="4" width="6" height="1" fill="#c8c7ff"/><rect x="27" y="4" width="12" height="1" fill="#241a3a"/><rect x="39" y="4" width="1" height="2" fill="#c8c7ff"/><rect x="9" y="5" width="30" height="2" fill="#241a3a"/><rect x="39" y="6" width="2" height="1" fill="#57068c"/><rect x="9" y="7" width="29" height="1" fill="#241a3a"/><rect x="38" y="7" width="2" height="1" fill="#7fffd4"/><rect x="40" y="7" width="1" height="1" fill="#57068c"/><rect x="9" y="8" width="28" height="1" fill="#241a3a"/><rect x="37" y="8" width="3" height="1" fill="#7fffd4"/><rect x="9" y="9" width="27" height="1" fill="#241a3a"/><rect x="36" y="9" width="3" height="1" fill="#7fffd4"/><rect x="39" y="9" width="1" height="17" fill="#c8c7ff"/><rect x="9" y="10" width="14" height="1" fill="#241a3a"/><rect x="23" y="10" width="1" height="1" fill="#7fffd4"/><rect x="24" y="10" width="1" height="1" fill="#ffffff"/><rect x="25" y="10" width="2" height="1" fill="#7fffd4"/><rect x="27" y="10" width="8" height="1" fill="#241a3a"/><rect x="35" y="10" width="3" height="1" fill="#7fffd4"/><rect x="38" y="10" width="1" height="1" fill="#241a3a"/><rect x="9" y="11" width="13" height="1" fill="#241a3a"/><rect x="22" y="11" width="5" height="1" fill="#7fffd4"/><rect x="27" y="11" width="7" height="1" fill="#241a3a"/><rect x="34" y="11" width="3" height="1" fill="#7fffd4"/><rect x="37" y="11" width="2" height="1" fill="#241a3a"/><rect x="9" y="12" width="12" height="2" fill="#241a3a"/><rect x="21" y="12" width="7" height="1" fill="#7fffd4"/><rect x="28" y="12" width="5" height="1" fill="#241a3a"/><rect x="33" y="12" width="3" height="1" fill="#c8c7ff"/><rect x="36" y="12" width="3" height="1" fill="#241a3a"/><rect x="21" y="13" width="2" height="1" fill="#7fffd4"/><rect x="23" y="13" width="3" height="1" fill="#57068c"/><rect x="26" y="13" width="3" height="2" fill="#7fffd4"/><rect x="29" y="13" width="3" height="1" fill="#241a3a"/><rect x="32" y="13" width="3" height="1" fill="#c8c7ff"/><rect x="35" y="13" width="4" height="1" fill="#241a3a"/><rect x="9" y="14" width="3" height="4" fill="#241a3a"/><rect x="12" y="14" width="2" height="2" fill="#7fffd4"/><rect x="14" y="14" width="6" height="1" fill="#241a3a"/><rect x="20" y="14" width="2" height="1" fill="#7fffd4"/><rect x="22" y="14" width="2" height="1" fill="#57068c"/><rect x="24" y="14" width="2" height="1" fill="#241a3a"/><rect x="29" y="14" width="2" height="1" fill="#241a3a"/><rect x="31" y="14" width="3" height="1" fill="#57068c"/><rect x="34" y="14" width="5" height="1" fill="#241a3a"/><rect x="14" y="15" width="5" height="1" fill="#241a3a"/><rect x="19" y="15" width="2" height="1" fill="#7fffd4"/><rect x="21" y="15" width="2" height="1" fill="#57068c"/><rect x="23" y="15" width="3" height="1" fill="#241a3a"/><rect x="26" y="15" width="1" height="1" fill="#57068c"/><rect x="27" y="15" width="3" height="1" fill="#7fffd4"/><rect x="30" y="15" width="1" height="1" fill="#ffffff"/><rect x="31" y="15" width="2" height="1" fill="#57068c"/><rect x="33" y="15" width="6" height="1" fill="#241a3a"/><rect x="12" y="16" width="3" height="1" fill="#7fffd4"/><rect x="15" y="16" width="4" height="1" fill="#241a3a"/><rect x="19" y="16" width="3" height="1" fill="#7fffd4"/><rect x="22" y="16" width="5" height="1" fill="#241a3a"/><rect x="27" y="16" width="1" height="1" fill="#57068c"/><rect x="28" y="16" width="1" height="1" fill="#7fffd4"/><rect x="29" y="16" width="1" height="1" fill="#ffffff"/><rect x="30" y="16" width="9" height="4" fill="#241a3a"/><rect x="12" y="17" width="1" height="1" fill="#57068c"/><rect x="13" y="17" width="3" height="1" fill="#7fffd4"/><rect x="16" y="17" width="2" height="1" fill="#241a3a"/><rect x="18" y="17" width="2" height="1" fill="#7fffd4"/><rect x="20" y="17" width="2" height="1" fill="#57068c"/><rect x="22" y="17" width="6" height="1" fill="#241a3a"/><rect x="28" y="17" width="2" height="1" fill="#7fffd4"/><rect x="9" y="18" width="4" height="2" fill="#241a3a"/><rect x="13" y="18" width="6" height="1" fill="#7fffd4"/><rect x="19" y="18" width="2" height="1" fill="#57068c"/><rect x="21" y="18" width="7" height="1" fill="#241a3a"/><rect x="28" y="18" width="1" height="1" fill="#57068c"/><rect x="29" y="18" width="1" height="1" fill="#7fffd4"/><rect x="13" y="19" width="1" height="1" fill="#57068c"/><rect x="14" y="19" width="6" height="1" fill="#7fffd4"/><rect x="20" y="19" width="9" height="1" fill="#241a3a"/><rect x="29" y="19" width="1" height="1" fill="#57068c"/><rect x="9" y="20" width="5" height="1" fill="#241a3a"/><rect x="14" y="20" width="1" height="1" fill="#57068c"/><rect x="15" y="20" width="3" height="1" fill="#7fffd4"/><rect x="18" y="20" width="2" height="1" fill="#57068c"/><rect x="20" y="20" width="19" height="1" fill="#241a3a"/><rect x="9" y="21" width="6" height="1" fill="#241a3a"/><rect x="15" y="21" width="4" height="1" fill="#57068c"/><rect x="19" y="21" width="20" height="1" fill="#241a3a"/><rect x="9" y="22" width="30" height="4" fill="#241a3a"/><rect x="8" y="26" width="32" height="1" fill="#c8c7ff"/><rect x="5" y="27" width="38" height="1" fill="#c8c7ff"/><rect x="5" y="28" width="1" height="1" fill="#c8c7ff"/><rect x="6" y="28" width="36" height="1" fill="#3a2d56"/><rect x="42" y="28" width="1" height="1" fill="#c8c7ff"/><rect x="5" y="29" width="38" height="1" fill="#c8c7ff"/><rect x="13" y="30" width="1" height="2" fill="#c8c7ff"/><rect x="14" y="30" width="2" height="2" fill="#3a2d56"/><rect x="16" y="30" width="1" height="2" fill="#c8c7ff"/><rect x="22" y="30" width="1" height="7" fill="#c8c7ff"/><rect x="23" y="30" width="2" height="7" fill="#3a2d56"/><rect x="25" y="30" width="1" height="7" fill="#c8c7ff"/><rect x="31" y="30" width="1" height="2" fill="#c8c7ff"/><rect x="32" y="30" width="2" height="2" fill="#3a2d56"/><rect x="34" y="30" width="1" height="2" fill="#c8c7ff"/><rect x="12" y="32" width="1" height="2" fill="#c8c7ff"/><rect x="13" y="32" width="2" height="2" fill="#3a2d56"/><rect x="15" y="32" width="1" height="2" fill="#c8c7ff"/><rect x="32" y="32" width="1" height="2" fill="#c8c7ff"/><rect x="33" y="32" width="2" height="2" fill="#3a2d56"/><rect x="35" y="32" width="1" height="2" fill="#c8c7ff"/><rect x="11" y="34" width="1" height="2" fill="#c8c7ff"/><rect x="12" y="34" width="2" height="2" fill="#3a2d56"/><rect x="14" y="34" width="1" height="2" fill="#c8c7ff"/><rect x="33" y="34" width="1" height="2" fill="#c8c7ff"/><rect x="34" y="34" width="2" height="2" fill="#3a2d56"/><rect x="36" y="34" width="1" height="2" fill="#c8c7ff"/><rect x="10" y="36" width="1" height="2" fill="#c8c7ff"/><rect x="11" y="36" width="2" height="2" fill="#3a2d56"/><rect x="13" y="36" width="1" height="2" fill="#c8c7ff"/><rect x="34" y="36" width="1" height="2" fill="#c8c7ff"/><rect x="35" y="36" width="2" height="2" fill="#3a2d56"/><rect x="37" y="36" width="1" height="2" fill="#c8c7ff"/><rect x="22" y="37" width="4" height="1" fill="#c8c7ff"/><rect x="9" y="38" width="1" height="1" fill="#c8c7ff"/><rect x="10" y="38" width="2" height="1" fill="#3a2d56"/><rect x="12" y="38" width="1" height="1" fill="#c8c7ff"/><rect x="35" y="38" width="1" height="1" fill="#c8c7ff"/><rect x="36" y="38" width="2" height="1" fill="#3a2d56"/><rect x="38" y="38" width="1" height="1" fill="#c8c7ff"/><rect x="9" y="39" width="4" height="1" fill="#c8c7ff"/><rect x="35" y="39" width="4" height="1" fill="#c8c7ff"/></svg>
