<svg xmlns="http://www.w3.org/2000/svg" viewBox="0 0 24 24" width="24" height="24" shape-rendering="crispEdges"><rect width="24" height="24" fill="#4a3b6b"/><rect x="11" y="0" width="2" height="2" fill="#ffffff"/><rect x="10" y="2" width="4" height="1" fill="#ffffff"/><rect x="9" y="3" width="6" height="2" fill="#ffffff"/><rect x="8" y="5" width="3" height="1" fill="#ffffff"/><rect x="13" y="5" width="3" height="1" fill="#ffffff"/><rect x="7" y="6" width="3" height="2" fill="#ffffff"/><rect x="14" y="6" width="3" height="2" fill="#ffffff"/><rect x="6" y="8" width="3" height="1" fill="#ffffff"/><rect x="15" y="8" width="3" height="1" fill="#ffffff"/><rect x="5" y="9" width="3" height="2" fill="#ffffff"/><rect x="16" y="9" width="3" height="2" fill="#ffffff"/><rect x="4" y="11" width="3" height="1" fill="#ffffff"/><rect x="17" y="11" width="3" height="1" fill="#ffffff"/><rect x="3" y="12" width="3" height="1" fill="#ffffff"/><rect x="18" y="12" width="3" height="1" fill="#ffffff"/><rect x="3" y="13" width="18" height="1" fill="#ffffff"/><rect x="2" y="14" width="20" height="1" fill="#ffffff"/><rect x="8" y="15" width="8" height="1" fill="#ffffff"/><rect x="7" y="16" width="3" height="1" fill="#ffffff"/><rect x="11" y="16" width="2" height="6" fill="#ffffff"/><rect x="14" y="16" width="3" height="1" fill="#ffffff"/><rect x="6" y="17" width="3" height="2" fill="#ffffff"/><rect x="15" y="17" width="3" height="2" fill="#ffffff"/><rect x="5" y="19" width="3" height="1" fill="#ffffff"/><rect x="16" y="19" width="3" height="1" fill="#ffffff"/><rect x="4" y="20" width="3" height="1" fill="#ffffff"/><rect x="17" y="20" width="3" height="1" fill="#ffffff"/><rect x="3" y="21" width="3" height="1" fill="#ffffff"/><rect x="18" y="21" width="3" height="1" fill="#ffffff"/><rect x="2" y="22" width="5" height="2" fill="#ffffff"/><rect x="9" y="22" width="6" height="2" fill="#ffffff"/><rect x="17" y="22" width="5" height="2" fill="#ffffff"/></svg>
