<svg xmlns="http://www.w3.org/2000/svg" viewBox="0 0 16 16" shape-rendering="crispEdges" fill="#c8c7ff"><rect x="2" y="2" width="6" height="1"/><rect x="2" y="3" width="8" height="1"/><rect x="8" y="4" width="3" height="1"/><rect x="9" y="5" width="3" height="1"/><rect x="2" y="6" width="5" height="1"/><rect x="10" y="6" width="2" height="1"/><rect x="2" y="7" width="6" height="1"/><rect x="10" y="7" width="2" height="1"/><rect x="6" y="8" width="2" height="1"/><rect x="10" y="8" width="2" height="1"/><rect x="7" y="9" width="1" height="1"/><rect x="10" y="9" width="2" height="1"/><rect x="1" y="10" width="3" height="1"/><rect x="7" y="10" width="1" height="1"/><rect x="10" y="10" width="2" height="1"/><rect x="1" y="11" width="4" height="1"/><rect x="7" y="11" width="1" height="1"/><rect x="10" y="11" width="2" height="1"/><rect x="1" y="12" width="4" height="1"/></svg>
